<svg xml:space="preserve" style="enable-background:new 0 0 640 254.6;" viewBox="0 0 640 254.6" y="0px" x="0px" xmlns:xlink="http://www.w3.org/1999/xlink" xmlns="http://www.w3.org/2000/svg" id="Layer_1" version="1.1">
<style type="text/css">
	.st0{fill:none;}
	.st1{enable-background:new    ;}
</style>
<g>
	<g>
		<rect height="123.7" width="550.9" class="st0" y="32.1" x="44.5"></rect>
	</g>
	<g class="st1">
		<path d="M84.5,50.8v32.6h46.1v19H84.5V154H65.4V31.8h72.5v19H84.5z"></path>
		<path d="M153,32.1h19.1v121.8H153V32.1z"></path>
		<path d="M214.7,50.9v31.2h46.1v19h-46.1v33.7h53.4v19h-72.5V32.1h72.5v18.8H214.7z"></path>
		<path d="M354.9,153.8l-32.8-47.1h-15v47.1H288l-0.1-121.8h37.8c22.7,0,41.2,17.4,41.2,39.1c0,15.7-10.1,29.4-24.1,33.9l35.4,48.7
			H354.9z M326.2,90.9c11.5,0.1,21.1-9.2,21.1-20.1c0-11.3-9.7-19.7-21.1-19.7H307v39.8H326.2z"></path>
		<path d="M385.4,93c0-34.3,28.6-63.1,62.8-63.1c15.8,0.2,30.4,6.9,42.3,18.6l-11.1,15c-8.5-8.5-19.6-14.2-31.6-14.2
			c-22.1,0-43.1,19.3-43.1,43.7c0,24.5,21.4,43.5,43.2,43.5c12.5,0,23.2-6.2,31.6-14.5l11,15.4c-10.5,10.3-23.9,18.3-42,18.3
			C414,155.8,385.4,127.4,385.4,93z"></path>
		<path d="M524.8,50.9v31.2h46.1v19h-46.1v33.7h53.4v19h-72.5V32.1h72.5v18.8H524.8z"></path>
	</g>
	<g>
		<g>
			<path d="M233,214.2c1.4-2.7,2.6-5.3,3.9-7.9c1.6-3.1,3.1-6.3,4.7-9.5c0.2-0.5,0.5-0.6,1-0.6c1.7,0,3.4,0,5.2,0
				c0,9.4,0,18.7,0,28.1c-1.5,0-3,0-4.4,0c-0.1,0-0.4-0.5-0.4-0.7c0-2,0-4-0.1-6.1c0-3.9,0-7.7,0-11.6c0-0.3,0-0.6,0-0.8
				c-0.1,0-0.1,0-0.2,0c-0.6,1.1-1.1,2.2-1.7,3.3c-2,4.1-4.1,8.3-6.1,12.5c-0.3,0.5-0.6,0.6-1.1,0.7c-2,0.3-3-0.5-3.9-2.3
				c-2.1-4.8-4.6-9.4-7-14.1c0,6.4,0,12.8,0,19.3c-1.7,0-3.3,0-4.9,0c0-9.3,0-18.7,0-28.1c1.3,0,2.7,0.1,4,0
				c1.5-0.2,2.2,0.4,2.8,1.7C227.5,203.4,230.2,208.7,233,214.2z"></path>
		</g>
		<g>
			<path d="M407.9,224.6c-7.9,0-13.7-4.4-15.4-10.8c-2-7.9,2.9-15.7,11-17.3c5.1-1,9.8-0.1,13.7,3.4c7.4,6.6,5.9,18.4-2.9,22.9
				C412,224,409.5,224.6,407.9,224.6z M416.5,210.4c0-5.3-4.1-9.5-9.4-9.5c-5.4,0-9.7,4.2-9.8,9.4c0,5.3,4.3,9.6,9.6,9.6
				C412.3,219.9,416.5,215.6,416.5,210.4z"></path>
		</g>
		<g>
			<path d="M290.1,224.4c-2,0-3.8,0-5.6,0c-0.3,0-0.6-0.3-0.7-0.6c-1.4-2.3-2.9-4.7-4.3-7.1c-0.3-0.5-0.6-0.7-1.2-0.7
				c-1.9,0-3.8,0-5.7,0c-0.8,0-0.9,0.3-0.9,1c0,2.1,0,4.2,0,6.3c0,0.3,0,0.6,0,1c-1.7,0-3.4,0-5.1,0c0-9.3,0-18.6,0-28
				c0.2,0,0.4-0.1,0.6-0.1c4.1,0,8.2,0,12.2,0.1c2.7,0.1,5.2,0.8,7.2,2.7c2.2,2,2.9,4.6,2.8,7.4c-0.1,2.9-1,5.4-3.3,7.3
				c-0.7,0.5-1.4,0.9-2.2,1.4C285.8,218.2,287.9,221.2,290.1,224.4z M271.7,211.3c1.1,0,2.1,0,3.1,0c1.8-0.1,3.7,0,5.4-0.3
				c2.7-0.4,4.1-2.3,4.1-5c0-2.7-1.4-4.5-4.1-4.8c-2.8-0.3-5.6-0.2-8.3-0.2c0,0-0.1,0.1-0.2,0.1
				C271.7,204.5,271.7,207.9,271.7,211.3z"></path>
		</g>
		<g>
			<path d="M376.7,200.3c-1,1.3-2,2.5-3,3.8c-1.6-1.5-3.4-2.5-5.5-3c-5.5-1.4-10.9,1.8-12.1,7.3c-1.2,5.2,2.7,10.7,8.1,11.3
				c2.5,0.3,4.8-0.2,7-1.3c0.5-0.2,0.7-0.5,0.6-1c0-1.1,0-2.2,0-3.4c-1.8,0-3.5,0-5.3,0c0-1.6,0-3.1,0-4.6c3.3,0,6.6,0,10,0
				c0,0.6,0,1.1,0,1.6c0,3,0,6.1,0,9.1c0,0.3-0.1,0.7-0.3,0.9c-5.3,3.8-13.2,5.1-19.2,0.9c-4.9-3.4-7-8.2-6-14.1
				c1-6,4.8-9.7,10.5-11.2c5.4-1.4,10.4-0.3,14.8,3.1C376.3,200,376.5,200.1,376.7,200.3z"></path>
		</g>
		<g>
			<path d="M347.1,200.3c-1,1.3-2,2.6-3,3.9c-1.6-1.5-3.5-2.5-5.6-3c-5.6-1.4-10.9,2-12.1,7.6c-1,5.1,2.8,10.4,8.1,11
				c2.5,0.3,4.8-0.2,7.1-1.3c0.4-0.2,0.6-0.5,0.6-1c0-1.1,0-2.2,0-3.3c-1.8,0-3.6,0-5.4,0c0-1.6,0-3.1,0-4.6c3.3,0,6.6,0,9.9,0
				c0,0.2,0.1,0.4,0.1,0.7c0,3.4,0,6.7,0,10.1c0,0.3-0.2,0.8-0.4,1c-5.3,3.7-12.7,4.8-18.6,1.2c-4.8-3-7.6-8.6-6.7-14
				c1-6.1,4.6-10,10.6-11.6c5.5-1.5,10.5-0.3,15,3.2C346.8,200,346.9,200.1,347.1,200.3z"></path>
		</g>
		<g>
			<path d="M291.2,224.4c0.5-1.2,0.9-2.2,1.4-3.2c3.6-8.1,7.1-16.1,10.7-24.2c0.3-0.6,0.6-0.8,1.2-0.8c1.2,0.1,2.5,0,3.7,0
				c0.3,0,0.7,0.2,0.8,0.5c4,9,8,18.1,11.9,27.2c0,0.1,0,0.2,0.1,0.5c-1.2,0-2.4-0.1-3.5,0c-1.5,0.2-2.3-0.3-2.8-1.8
				c-0.4-1.3-1-2.5-1.5-3.7c-0.2-0.6-0.5-0.7-1.1-0.7c-4,0-7.9,0-11.9,0c-0.7,0-1,0.2-1.2,0.8c-0.6,1.6-1.3,3.2-2,4.8
				c-0.2,0.5-0.4,0.7-1,0.7C294.5,224.4,293,224.4,291.2,224.4z M301.3,213.4c3.2,0,6.3,0,9.5,0c-1.6-3.7-3.1-7.4-4.7-11.1
				C304.5,206.1,302.9,209.7,301.3,213.4z"></path>
		</g>
		<g>
			<path d="M382.5,224.4c0-9.4,0-18.7,0-28.1c1.7,0,3.4,0,5.2,0c0,0.3,0,0.6,0,1c0,8.7,0,17.4,0,26.1c0,0.8-0.2,1.1-1,1
				C385.3,224.4,383.9,224.4,382.5,224.4z"></path>
		</g>
		<g>
			<path d="M254.6,224.4c0-9.4,0-18.7,0-28c1.7,0,3.4,0,5.2,0c0,9.3,0,18.7,0,28C258,224.4,256.3,224.4,254.6,224.4z"></path>
		</g>
	</g>
	<g>
		<rect height="1" width="124" y="209.9" x="454.2"></rect>
	</g>
	<g>
		<rect height="1" width="124" y="209.9" x="59.9"></rect>
	</g>
</g>
</svg>
